# xmcd
#
# Track frame offsets:
#	150
#	11177
#	20077
#	28115
#	39521
#	50392
#	60374
#	72265
#	86049
#	98413
#	111832
#	123628
#	136635
#	154389
#	183027
#	197235
#	212983
#	226030
#
# Disc length: 3207 seconds
# Revision: 1
# Processed by: cddbd v1.5.2PL0 Copyright (c) Steve Scherf et al.
# Submitted via: dBpowerAMP V12.0
#
DISCID=f10c8512
DTITLE=Johnny Cash - Johnny Cash's America
DYEAR=2008
DGENRE=Country
TTITLE0=Come Along and Ride This Train
TTITLE1=Pickin' Time
TTITLE2=Five Feet High and Rising
TTITLE3=Big River
TTITLE4=Cry, Cry, Cry
TTITLE5=All of God's Children Ain't Free
TTITLE6=Big Foot
TTITLE7=Don't Take Your Guns To Town
TTITLE8=Folsom Prison Blues
TTITLE9=Singing In Vietnam Talkin' Blues
TTITLE10=What Is Truth
TTITLE11=Man In Black
TTITLE12=Were You There (When They Crucified My Lord)
TTITLE13=Children, Go Where I Send Thee
TTITLE14=Ragged Old Flag
TTITLE15=Song of the Patriot
TTITLE16=This Land Is Your Land
TTITLE17=I Am the Nation
EXTD=
EXTT0=
EXTT1=
EXTT2=
EXTT3=
EXTT4=
EXTT5=
EXTT6=
EXTT7=
EXTT8=
EXTT9=
EXTT10=
EXTT11=
EXTT12=
EXTT13=
EXTT14=
EXTT15=
EXTT16=
EXTT17=
PLAYORDER=
